<svg width="49" height="48" viewBox="0 0 49 48" fill="none" xmlns="http://www.w3.org/2000/svg">
<path d="M37.8426 5.25328C37.6256 4.72966 37.2068 4.32904 36.6918 4.15254L36.688 4.15128L36.6844 4.15002L36.6768 4.14748L36.661 4.14228L36.6272 4.13166C36.6036 4.12446 36.578 4.11712 36.5504 4.10974C36.4952 4.09498 36.432 4.08014 36.361 4.06638C36.2186 4.03882 36.0456 4.01574 35.8416 4.00558C35.432 3.98518 34.9074 4.01716 34.2634 4.16108C33.1894 4.40106 31.7952 4.94928 30.0448 6.07262C29.9304 6.14604 29.8144 6.22192 29.697 6.30032C29.5794 6.27122 29.4618 6.2431 29.344 6.216C26.1522 5.48166 22.8484 5.48166 19.6565 6.216C19.5387 6.24312 19.421 6.27122 19.3035 6.30034C19.186 6.22192 19.07 6.14604 18.9555 6.07262C17.2033 4.9487 15.8058 4.40058 14.7291 4.16078C14.0836 4.01704 13.5578 3.98524 13.148 4.00556C12.9437 4.01568 12.7707 4.03862 12.6286 4.06598C12.5576 4.07964 12.4946 4.09434 12.4397 4.10894C12.4122 4.11624 12.3867 4.12352 12.3633 4.13062L12.3296 4.14112L12.314 4.14622L12.3064 4.14874L12.3027 4.14998L12.299 4.15122C11.7796 4.32794 11.3575 4.73246 11.141 5.26122C10.3343 7.2308 10.1202 9.40268 10.5087 11.4861C10.5276 11.5873 10.5479 11.6884 10.5696 11.7892C10.4863 11.9075 10.4054 12.0274 10.3269 12.1488C9.11543 14.0218 8.47107 16.2558 8.50127 18.5499C8.50417 23.463 9.93931 26.8278 12.3664 28.993C13.7403 30.2186 15.3349 30.9688 16.9375 31.4416C17.1208 31.4958 17.3043 31.5462 17.4876 31.5934C17.4609 31.6864 17.4359 31.7802 17.4128 31.8746C17.3158 32.2714 17.2514 32.6788 17.2217 33.0922C17.219 33.1296 17.2173 33.167 17.2166 33.2044L17.1487 36.842L17.1483 36.8814C17.1483 36.8928 17.1483 36.9042 17.1483 36.9154C17.0252 36.946 16.9001 36.9686 16.7736 36.9832C16.384 37.0282 15.9893 36.9954 15.6122 36.8868C15.235 36.7782 14.8825 36.5958 14.575 36.3498C14.2675 36.1038 14.0111 35.7988 13.8206 35.4522L13.801 35.4174C13.2767 34.507 12.5525 33.7278 11.6828 33.139C10.8131 32.55 9.82081 32.1672 8.78095 32.0198C7.68731 31.8648 6.67507 32.6256 6.52005 33.7194C6.36503 34.813 7.12593 35.8252 8.21957 35.9802C8.65633 36.0422 9.07377 36.203 9.44025 36.4512C9.80243 36.6964 10.1055 37.0206 10.3268 37.4C10.7692 38.1984 11.3633 38.9028 12.076 39.473C12.7951 40.0484 13.6206 40.4758 14.5054 40.7306C15.367 40.9786 16.2678 41.0582 17.159 40.965C17.1608 41.4448 17.1621 41.813 17.1621 42C17.1621 43.1046 18.0104 44 19.0569 44H30.0116C31.058 44 31.9064 43.1046 31.9064 42V34.419C31.958 33.5604 31.87 32.6998 31.6476 31.8746C31.617 31.761 31.5838 31.648 31.5482 31.5358C31.6676 31.506 31.787 31.4746 31.9064 31.4416C33.5554 30.9874 35.2026 30.2448 36.6176 28.9966C39.0582 26.8434 40.4964 23.4758 40.4992 18.5499C40.5294 16.2558 39.885 14.0218 38.6736 12.1488C38.595 12.0272 38.514 11.9071 38.4304 11.7886C38.452 11.688 38.4722 11.5872 38.491 11.4861C38.8786 9.39868 38.659 7.22284 37.8426 5.25328Z" fill="#F4FFF8"/>
</svg>
