<svg width="49" height="48" viewBox="0 0 49 48" fill="none" xmlns="http://www.w3.org/2000/svg">
<g clip-path="url(#clip0_56009_1124)">
<path fill-rule="evenodd" clip-rule="evenodd" d="M40.0546 8.85968C42.2304 7.94354 44.563 9.7834 44.1788 12.1128L39.641 39.6262C39.2034 42.279 36.2898 43.8012 33.856 42.4792C31.8194 41.373 28.7978 39.6704 26.0746 37.891C24.7148 37.0024 20.551 34.1532 21.0628 32.125C21.5004 30.3908 28.5002 23.875 32.5002 20C34.0714 18.4779 33.3558 17.5985 31.5002 19C26.897 22.4766 19.5066 27.7624 17.0627 29.25C14.9065 30.5624 13.7806 30.7864 12.4377 30.5624C9.98545 30.1538 7.71191 29.521 5.85575 28.7516C3.34701 27.7116 3.46921 24.264 5.85405 23.26L40.0546 8.85968Z" fill="#F4FFF8"/>
</g>
<defs>
<clipPath id="clip0_56009_1124">
<rect width="48" height="48" fill="white" transform="translate(0.5)"/>
</clipPath>
</defs>
</svg>
