<svg width="49" height="48" viewBox="0 0 49 48" fill="none" xmlns="http://www.w3.org/2000/svg">
<path d="M29.0945 23.6251C28.3445 23.3431 28.3445 22.2661 28.298 21.5161C28.1105 18.8446 29.048 14.7661 27.923 13.0321C27.1265 12.0001 23.282 12.0946 20.939 12.2356C20.282 12.3301 19.4855 12.4696 18.923 12.7516C18.3605 13.0336 17.798 13.5016 17.798 13.9231C17.798 14.5321 19.205 14.4391 19.7195 15.2356C20.282 16.0801 20.282 17.9071 20.282 19.4071C20.282 21.1411 20 23.4391 19.298 23.5321C18.2195 23.5786 17.6105 22.5001 17.048 21.7036C15.923 20.1571 14.798 18.2341 13.9535 16.3591C13.532 15.3751 13.2965 14.2966 12.6875 13.8751C11.75 13.2181 10.0625 13.1716 8.42151 13.2181C6.92151 13.2646 4.76451 13.0771 4.34301 13.9681C4.01451 14.9521 4.71801 15.8896 5.09301 16.6876C7.01451 20.8591 9.07701 24.5161 11.609 27.9841C13.9535 31.2181 16.1555 33.7966 20.468 35.1556C21.6875 35.5306 27.0305 36.6091 28.109 35.1556C28.484 34.5931 28.391 33.3271 28.5785 32.3896C28.766 31.4521 29 30.5146 29.891 30.4681C30.641 30.4216 31.0625 31.0771 31.532 31.5466C32.048 32.0626 32.4695 32.4841 32.8445 32.9536C33.7355 33.8446 34.673 35.0626 35.798 35.5321C37.3445 36.1891 39.7355 36.0016 41.9855 35.9071C43.814 35.8606 45.1265 35.4856 45.2675 34.4071C45.362 33.5626 44.423 32.3446 43.8605 31.6411C42.4535 29.9071 41.798 29.3911 40.2035 27.7966C39.5 27.0931 38.609 26.3431 38.609 25.5001C38.5625 24.9841 38.984 24.5161 39.359 24.0001C41 21.5626 42.641 19.8286 44.141 17.2966C44.5625 16.5466 45.548 14.8126 45.173 13.9681C44.7515 13.0306 42.407 13.3111 40.9535 13.3111C39.0785 13.3111 36.641 13.1701 36.1715 13.5451C35.2805 14.1541 34.9055 15.1396 34.484 16.0771C33.5465 18.2341 32.2805 20.4361 30.968 22.0771C30.4985 22.6396 29.609 23.8111 29.093 23.6236L29.0945 23.6251Z" fill="#F4FFF8"/>
</svg>
